# xmcd CD database file
#
# Track frame offsets:
#	150
#	13297
#	33109
#	48398
#	64880
#	80505
#	93262
#	105811
#	118951
#	133658
#
# Disc length: 1961 seconds
#
# Revision: 0
# Processed by: cddbd v1.5.2PL0 Copyright (c) Steve Scherf et al.
# Submitted via: CdAid (MTCDDB.DLL V2003.12.21)
#
DISCID=7d07a70a
DTITLE=Johnny Cash - Ain't No Grave
DYEAR=2010
DGENRE=Country
TTITLE0=Ain't No Grave
TTITLE1=Redemption Day
TTITLE2=For The Good Times
TTITLE3=I Corinthians 15:55
TTITLE4=Can't Help But Wonder Where I'm Bound
TTITLE5=Satisfied Mind
TTITLE6=I Don't Hurt Anymore
TTITLE7=Cool Water
TTITLE8=Last Night I Had The Strangest Dream
TTITLE9=Aloha Oe
EXTD=American VI: Ain't No Grave ID3G:   2 YEAR: 2010
EXTT0=
EXTT1=
EXTT2=
EXTT3=
EXTT4=
EXTT5=
EXTT6=
EXTT7=
EXTT8=
EXTT9=
PLAYORDER=
